<svg width="588" height="88" viewBox="0 0 588 88" fill="none" xmlns="http://www.w3.org/2000/svg">
<path d="M18.5 6.3999H0.300049V86.8999H18.5V6.3999Z" fill="#5325B3"/>
<path d="M162.1 27.9C163 27.9 164 28 164.9 28V1.5H147.2V28.4C149.2 28.2 151.2 28.1 153.3 28C156.2 27.8 159.2 27.9 162.1 27.9Z" fill="#5325B3"/>
<path d="M196.9 33.2999L201.1 34.4999L205.3 35.8999C210.9 37.7999 216.3 40.2 221.6 42.7L229 46.0999L232.7 47.5999C233.9 48.0999 235.2 48.5999 236.5 49.0999C237.7 49.4999 238.9 49.9999 240.1 50.3999C237.8 34.4999 225.2 24.2 207.4 24.2C199 24.2 191.8 26.3999 186.2 30.4999C186.9 30.5999 187.6 30.7999 188.3 30.8999C191.2 31.7999 194.1 32.3999 196.9 33.2999Z" fill="#5325B3"/>
<path d="M290.6 59.1999L294.9 45.9999L299.1 58.8999C304 58.5999 308.9 57.9999 313.7 57.1999L303.8 24.8999H286.4L276.3 58.4999C278.8 58.6999 281.2 58.8999 283.7 58.9999C286.1 59.1999 288.3 59.2999 290.6 59.1999Z" fill="#5325B3"/>
<path d="M255.8 55.2C257.1 55.5 258.4 55.8 259.7 56.1C262.3 56.6 265 57.2 267.6 57.5C268.2 57.6 268.9 57.7 269.5 57.8L259.4 25L241.4 25.1L252.1 54.3C253.3 54.6 254.6 54.9 255.8 55.2Z" fill="#5325B3"/>
<path d="M321.6 55.8C327.5 54.5 333.3 52.9 339.1 50.9L348.5 25H331L321.6 55.8Z" fill="#5325B3"/>
<path d="M381.4 72.7999C372.8 72.7999 366.7 65.9999 366.7 55.9999C366.7 46.0999 372.8 39.3999 381.4 39.3999C387.5 39.2999 392.2 41.7999 395.5 45.9999L407.5 37.3999C402 29.0999 392.6 24.3999 380.7 24.3999C361.7 24.3999 349 37.1999 349 56.0999C349 74.7999 361.8 87.4999 380.5 87.4999C393.1 87.4999 402.8 82.3999 408 73.7999L395.8 65.4999C392.6 70.3999 387.7 72.7999 381.4 72.7999Z" fill="#5325B3"/>
<path d="M448.3 24.2998C437.5 24.2998 429.6 26.7998 420.4 31.3998L425.9 43.5998C432.3 39.9998 438.8 38.1998 444.3 38.1998C452.8 38.1998 457.2 41.9998 457.2 48.4998V49.5998H440.2C425 49.6998 416.6 56.5998 416.6 68.1998C416.6 79.4998 424.6 87.4998 437.9 87.4998C446.5 87.4998 453.2 84.5998 457.3 79.4998V86.6998H474.7L474.6 46.2998C474.3 32.5998 464.8 24.2998 448.3 24.2998ZM457.1 65.6998C456.1 70.9998 450.2 74.9998 442.7 74.9998C436.7 74.9998 433 71.8998 433 67.1998C433 62.2998 436.3 60.1998 443.1 60.1998H457V65.6998H457.1Z" fill="#5325B3"/>
<path d="M502.6 36.0999V24.9999H484.9V86.7999H502.6V56.9999C502.6 46.4999 510.4 39.7999 523.1 40.8999V24.2C513.8 24.4 506.8 28.4999 502.6 36.0999Z" fill="#5325B3"/>
<path d="M557.2 24.3999C538.3 24.3999 525.4 36.9999 525.4 56.0999C525.4 74.7999 537.9 87.4999 557.7 87.4999C568.9 87.4999 577.9 83.4999 584.1 76.5999L574.8 67.1999C570.5 71.4999 565 73.7999 559.2 73.7999C551.3 73.7999 545.3 69.1999 543.2 61.3999H587.6C589.1 38.7999 579 24.3999 557.2 24.3999ZM542.9 50.7999C544.3 42.5999 549.6 37.2999 557.4 37.2999C565.6 37.2999 570.9 42.5999 571.1 50.7999H542.9Z" fill="#5325B3"/>
<path d="M325.8 62.0999C323.6 62.6999 321.3 63.1999 319.1 63.6999C318.4 63.8999 317.7 63.9999 317 64.1999C316.6 64.2999 316.3 64.2999 315.9 64.3999C315.8 64.3999 315.8 64.3999 315.8 64.3999C314.9 64.5999 314.1 64.6999 313.2 64.8999C309.3 65.5999 305.5 66.0999 301.6 66.4999C297.1 66.9999 292.5 67.1999 288 67.2999C285.6 67.2999 283.1 67.2999 280.7 67.1999C278.4 67.0999 276.2 66.9999 274 66.7999C273.5 66.7999 273 66.6999 272.4 66.6999C269.8 66.3999 267.2 66.0999 264.6 65.6999C261.9 65.2999 259.3 64.6999 256.7 64.2999C256.4 64.1999 256 64.0999 255.7 64.0999C254.7 63.8999 253.8 63.5999 252.8 63.3999C251.5 63.0999 250.2 62.7999 248.9 62.3999L245 61.2999C243.7 60.8999 242.4 60.4999 241.2 60.0999C241 59.9999 240.7 59.8999 240.5 59.8999C238.2 59.1999 235.9 58.2999 233.6 57.3999C232.3 56.9999 231.1 56.3999 229.8 55.8999L226.1 54.3999L222.7 52.7999L218.7 50.8999C213.4 48.3999 208 45.9999 202.4 44.0999L198.2 42.6999L197.8 42.5999L193.9 41.4999C191.1 40.5999 188.2 39.9999 185.3 39.2999C183.3 38.8999 181.3 38.4999 179.3 38.0999C175.5 37.3999 171.7 36.8999 167.9 36.5999C166.9 36.4999 166 36.3999 165 36.3999C164.5 36.3999 164 36.2999 163.5 36.2999C162 36.1999 160.6 36.0999 159.1 36.0999C156.2 36.0999 153.2 36.0999 150.3 36.1999C149.3 36.1999 148.3 36.2999 147.3 36.3999C141.2 36.7999 135.1 37.5999 129.2 38.8999C126.4 39.4999 123.6 40.1999 120.9 40.8999V39.5999V27.3999V23.6999C120.9 18.3999 124.6 14.6999 129.8 14.7999C132.3 14.8999 135.3 15.7999 137.6 17.5999L138.1 2.79991C135 1.39991 130.4 0.599917 126.3 0.499917C112.6 0.399917 103.4 8.69992 103.4 20.9999V27.3999V39.5999V47.1999C102.2 47.6999 101.1 48.2999 100 48.7999C97.2 50.1999 94.4999 51.5999 91.8999 53.1999V47.9999C91.8999 33.4999 82.9999 24.2999 69.2999 24.2999C59.5999 24.3999 52.2999 28.0999 47.8999 35.7999V24.9999H30.2V86.7999H47.8999V56.2999C47.8999 47.1999 53.2 40.4999 62 40.3999C69.6 40.3999 74.2 45.1999 74.2 52.9999V86.6999H91.8999V57.5999H85.2999C87.0999 56.7999 89.4999 55.9999 91.8999 55.1999C92.0999 55.0999 92.3 55.0999 92.6 54.9999C95.8 53.8999 99.0999 52.9999 102.4 52.1999C102.9 52.0999 103.2 51.9999 103.2 51.9999C103.3 51.9999 103.4 51.8999 103.5 51.8999V86.6999H121.1V48.5999C129.9 47.3999 138.8 46.9999 147.6 47.2999V86.6999H165.3V48.9999C168.5 49.4999 171.7 50.0999 174.9 50.7999C174.7 52.3999 174.6 54.0999 174.6 55.7999C174.6 74.6999 187.9 87.3999 207.8 87.3999C220.6 87.3999 230.7 82.0999 236.2 73.1999C236.6 73.2999 237 73.3999 237.4 73.4999C238.8 73.8999 240.2 74.2999 241.7 74.6999L246 75.6999C247.4 76.0999 248.9 76.2999 250.3 76.5999C251.8 76.8999 253.2 77.0999 254.7 77.3999C256.9 77.6999 259.1 77.9999 261.3 78.1999L264.4 86.6999H282.1L284.8 78.3999C291.6 77.7999 298.3 76.6999 304.8 74.9999L308.6 86.6999H326L334.8 62.5999C338.5 60.3999 342.1 57.9999 345.4 55.1999C344.1 55.7999 342.9 56.2999 341.6 56.7999C336.4 58.9999 331.1 60.6999 325.8 62.0999ZM207.4 73.0999C198.2 73.0999 192 66.1999 192 56.0999C192 55.9999 192 55.7999 192 55.6999L193.6 56.1999L197.4 57.5999C202.5 59.4999 207.4 61.6999 212.3 63.9999C214.6 65.0999 217 66.1999 219.4 67.2999C216.7 70.9999 212.5 73.0999 207.4 73.0999Z" fill="#5325B3"/>
</svg>
